<mxfile host="Electron" modified="2023-11-04T12:42:02.869Z" agent="Mozilla/5.0 (Windows NT 10.0; Win64; x64) AppleWebKit/537.36 (KHTML, like Gecko) draw.io/22.0.3 Chrome/114.0.5735.289 Electron/25.8.4 Safari/537.36" etag="MwiN3KN-zgwn0qLQtGNb" version="22.0.3" type="device">
  <diagram name="Page-1" id="53ZoZ5cpQC8B2f771T1V">
    <mxGraphModel dx="1418" dy="820" grid="1" gridSize="10" guides="1" tooltips="1" connect="1" arrows="1" fold="1" page="1" pageScale="1" pageWidth="850" pageHeight="1100" math="0" shadow="0">
      <root>
        <mxCell id="0" />
        <mxCell id="1" parent="0" />
        <mxCell id="5ypcM1BZYjg6Bkp_wZxM-21" style="edgeStyle=orthogonalEdgeStyle;rounded=0;orthogonalLoop=1;jettySize=auto;html=1;" edge="1" parent="1" source="5ypcM1BZYjg6Bkp_wZxM-10">
          <mxGeometry relative="1" as="geometry">
            <mxPoint x="950" y="345" as="targetPoint" />
          </mxGeometry>
        </mxCell>
        <mxCell id="5ypcM1BZYjg6Bkp_wZxM-10" value="" style="whiteSpace=wrap;html=1;aspect=fixed;" vertex="1" parent="1">
          <mxGeometry x="150" y="30" width="630" height="630" as="geometry" />
        </mxCell>
        <mxCell id="5ypcM1BZYjg6Bkp_wZxM-12" value="" style="rounded=0;whiteSpace=wrap;html=1;" vertex="1" parent="1">
          <mxGeometry x="640" y="630" width="140" height="30" as="geometry" />
        </mxCell>
        <mxCell id="5ypcM1BZYjg6Bkp_wZxM-8" value="" style="edgeStyle=orthogonalEdgeStyle;rounded=0;orthogonalLoop=1;jettySize=auto;html=1;" edge="1" parent="1" source="5ypcM1BZYjg6Bkp_wZxM-1" target="5ypcM1BZYjg6Bkp_wZxM-4">
          <mxGeometry relative="1" as="geometry">
            <Array as="points">
              <mxPoint x="500" y="250" />
              <mxPoint x="500" y="250" />
            </Array>
          </mxGeometry>
        </mxCell>
        <mxCell id="5ypcM1BZYjg6Bkp_wZxM-1" value="&lt;font style=&quot;font-size: 22px;&quot;&gt;UI/UX&amp;nbsp;&lt;br&gt;Angular WebPage&lt;/font&gt;" style="rounded=0;whiteSpace=wrap;html=1;fillColor=#d5e8d4;strokeColor=#82b366;" vertex="1" parent="1">
          <mxGeometry x="360" y="280" width="200" height="120" as="geometry" />
        </mxCell>
        <mxCell id="5ypcM1BZYjg6Bkp_wZxM-7" value="" style="edgeStyle=orthogonalEdgeStyle;rounded=0;orthogonalLoop=1;jettySize=auto;html=1;" edge="1" parent="1" source="5ypcM1BZYjg6Bkp_wZxM-3" target="5ypcM1BZYjg6Bkp_wZxM-1">
          <mxGeometry relative="1" as="geometry">
            <Array as="points">
              <mxPoint x="500" y="440" />
              <mxPoint x="500" y="440" />
            </Array>
          </mxGeometry>
        </mxCell>
        <mxCell id="5ypcM1BZYjg6Bkp_wZxM-3" value="&lt;span style=&quot;font-size: 22px;&quot;&gt;.NET Backend API Services&lt;/span&gt;" style="rounded=0;whiteSpace=wrap;html=1;fillColor=#f8cecc;strokeColor=#b85450;" vertex="1" parent="1">
          <mxGeometry x="360" y="480" width="200" height="120" as="geometry" />
        </mxCell>
        <mxCell id="5ypcM1BZYjg6Bkp_wZxM-9" value="" style="edgeStyle=orthogonalEdgeStyle;rounded=0;orthogonalLoop=1;jettySize=auto;html=1;" edge="1" parent="1" source="5ypcM1BZYjg6Bkp_wZxM-4" target="5ypcM1BZYjg6Bkp_wZxM-1">
          <mxGeometry relative="1" as="geometry">
            <Array as="points">
              <mxPoint x="420" y="230" />
              <mxPoint x="420" y="230" />
            </Array>
          </mxGeometry>
        </mxCell>
        <mxCell id="5ypcM1BZYjg6Bkp_wZxM-4" value="&lt;span style=&quot;font-size: 22px;&quot;&gt;OpenSource Rapid API to Get Realtime Trading Data&lt;/span&gt;" style="rounded=0;whiteSpace=wrap;html=1;fillColor=#fff2cc;strokeColor=#d6b656;" vertex="1" parent="1">
          <mxGeometry x="360" y="80" width="200" height="120" as="geometry" />
        </mxCell>
        <mxCell id="5ypcM1BZYjg6Bkp_wZxM-6" style="edgeStyle=orthogonalEdgeStyle;rounded=0;orthogonalLoop=1;jettySize=auto;html=1;entryX=0.315;entryY=0.025;entryDx=0;entryDy=0;entryPerimeter=0;" edge="1" parent="1" source="5ypcM1BZYjg6Bkp_wZxM-1" target="5ypcM1BZYjg6Bkp_wZxM-3">
          <mxGeometry relative="1" as="geometry">
            <Array as="points">
              <mxPoint x="423" y="430" />
              <mxPoint x="423" y="430" />
            </Array>
          </mxGeometry>
        </mxCell>
        <mxCell id="5ypcM1BZYjg6Bkp_wZxM-11" value="&lt;font style=&quot;font-size: 21px;&quot;&gt;INVESTOPIA&lt;/font&gt;" style="text;html=1;strokeColor=none;fillColor=none;align=center;verticalAlign=middle;whiteSpace=wrap;rounded=0;" vertex="1" parent="1">
          <mxGeometry x="650" y="630" width="120" height="30" as="geometry" />
        </mxCell>
        <mxCell id="5ypcM1BZYjg6Bkp_wZxM-13" value="" style="shape=image;verticalLabelPosition=bottom;labelBackgroundColor=default;verticalAlign=top;aspect=fixed;imageAspect=0;image=data:image/png,iVBORw0KGgoAAAANSUhEUgAAASoAAACpCAMAAACrt4DfAAABC1BMVEX///8Dm8b+/v4Ai7gkuOs5TVQAqtq/2+A5SlArl7wef50Anso5S1E6SU80SVDU7fEsQ0s2T1cArtYOnL3R1dfBx8ozaHgeyfgfwe4Aq9I6QkVhb3S3vb81XWknosUrj6srY3EhueMhd4wddJMtiKE2WGFwfoIhf5dOYGY+PT7k5ucql7YieZA9P0EApswra30LgqqzzdMXjbAAqNdWZmx6kZfe4uPt7/Crs7YktOWAjJBDV14Ah7aOmJzKz9EjPUaao6YycIfF5+6hu8GOp6w8My+Fj5I9Lysuh6chbot1goYjZXthudWBxtwBkr/f9PaX0+OqwcZDsNBoipWQ0OGu3ulxuM6Fv9GIn6W4n7xnAAAdTUlEQVR4nN1di0PayNYP0ViQJCaAyCsIShAFwSIVlKsLbW+vxa7d3fvt3v3//5JvZpJ5ZvICtHZPHyEwz1/OOXPmnJmJoqjgDyD/EkNq4rt16KERTRfSulTJd5KGpe2eGvhB9a5qqo7GJFZVlaTBn1R6rzC/kAcFqf6LFUW/HOJSVJSRNF0lFap+RSiBV7iqqgr3jUpZw//FL8BLSxuqMm30/zC/J0ZDkiYZ2FGpuqYWRdZholJSPPTYpMEEm8vO5qWoPlS6nFio6ANXKCOxUsIxlUI/Cw1V+e+4ZD7/qCop0+cqVgw2p3XLgVDZrpx4rtp6oxIJEZLTZEp9q8Q/YvQ/gCpbrrRlNLQ3hWq7tD2u4pQ3LZnV5OLj8QTQKB9V2hVEbe+fd1fgoIprqCpJkpKrJHrYV+qcfG9KZKBQ8QCnUv3C18fpHA+qpnF85DiVZg1c3Erf6ByVHQyVl80f8YhA4DGM+Uuv5FZRmPREnEjHcRNxu5kCJGIXa6EkhYpeAx95DcxXhgTwqHnZOXLdSvPfx0euXenXOhC4gq2/qAAmH/BVbJVsQwqZp02fjz/c4GeqqCxX+ZXzUJ3zUPlcpTDPnIxY/shEWIT2DPMTsa+IncWNeSq94HJVWixNuHVa1+qJhOpluSoFbRUxVrSDah0zEqmS2L/xXCVtbXLbd+1eqiGfE+WM4RzK5PgDkRGajDUFYwUQcxUzDKh8S7CBSJ9S1EioBgCg+idQh6yArRCHh1C8qnI/0I90BIznKll1CToUMtGVquiw4siYyAvPmsSWg0WOqFZVYXSyUNNWdNWWlW9ccYFHTwYY7l6h3WWHk1hdFdaMxLpqXdoGjJijtkIqGbt5q5ByLzESVQ7seK7CrWQEmmFXv3b6i6hxVPZ7+vhIJu45Ek5gG7llnpVwjoyrpNZ6MgFM0OBN+yTJ74PFPGh1Y+go57DTB6Z8jrlUYo6m0VX4EbD8K3YQcxzJQDmDsbnJd4xXjytE1DZb5CwGIGbKRtWZJzDURCZqMImuUmnncUcEKGifuDtRdmkhnM4Ninhw+EmEgXgbFHHhlswm+I4EOwMpuQlKiwt0wpdmNdjhqP4SLZYksSyvcCd+p8pA2YA/X3wEfDHiJJcHix0ZBMleB6q0XBVdzGtTZLUy9ReaQyYi8pHj5+Uqjl7jib08VFvtBR4rGANRpeMHy05MSnrZiHyozjsQI+jas7VKHwDnuPwISNsQaDv3AV+kQsDkCilSLC6E1Pgk0fnXIQ+qSrsN//KXn0kA09G0vg7NNRixkVI1DqrQxxpUldOIJMmLSUfhav3CMtcgGEK2HTltHAcktJiXtlIOJjVEzhOCO40OqUcRH1TOyqLLG9EMPJLZ9tQ7jj9RA4q1faX6nEYV4AVBlTWkBHst/yXip2wSqKLMFfzbA2iZad1Lk64JoJhNpucDAkjahKAanUipBQAZnEnJ1TV3IM00IiNgWFtDjF9BHEpzxO9WnVFYop+RKy569NwCXYAG6ccFGbXPDM1uH0mpbGRbbWmu5pbsqglsGMLqZgvdTF4vd+Fo6kHV7wyHnX7huFOFF3RXLCCoKv3i0bDfbveblWof3HmXsqG3Ck2Q5vi46l+K/mU7E5uFBdplGwArs5ccq2C54mQuIgFvigY51YdqZBT756OCUxsWz0ft1uWwf37iQdU2nKPBebOtjSodcDHK4DI8QlAdn5+1bbt6/O+zgq1XO+eDgusOE0EVSzdziFTmsaanwirWBI0yMYIMxdu8PlQndrFfOym0ssPi5Ul7ZAz7tYEPle0cndWabXdUOQYXDUBV86Hq187arlvtn58VXLvaqZ0VHCcZV8XSCjBVbby7m9PAMGFq2zEaZHNc7pMaMuX16OWgIuOt95F5ZkzIyZ+R+9/i9iolE9q4t7sAK5vlK+JLVWjheIxKYCWlVfn8FHBtqLIvyVVfIFS5XUj5LOSrScBw97qSoLf0GjA9fc8Ja1754IvRDnj/ggLI1KZSHmJbpJDf2A6BYbkH5pjOrkcZyFfWShXTq/x9lB2yHfKhWmpSqPQfo6sOoabK+VDt5uAMwFpso7fcsJYWVAzVm1LrK1PT3VsM1e4Y2gzaq3oriEQweGIBlHPVVqCSSIUq+cx8B9pkLHcp7deAuppL1ZW8zOjaE1Ew0ytAlZpKQP6MHAPV7hLwlXW3rhpiZ5YbUFCt107a5XCo7JeDivRmBi31PRaqPReaDOuUikc+vBoqfOoi1WPsYHIhGwEjoEo9AvIjldAGYWGV/+mLBVTVLkc5w7MY2Gglzs/1NsobHiOL/MRGaLoSwlVbF8AoXRWgKVy9teSh8kRwFtdhyRyQsZ2Skc+H4brq5UfAxI2dTgBUjwJUe8C6Mnsxmj2s4wrDMniGEAofl5qlFxPAZE9SluRiLmp1PAp6bBWXP3FFGBXmwoPEf/kGp8s3cADMi1DdAs1uzlMP/Vsa/SC9QaigrWAHoNp9NNIVzI8WIVzFLp9G/4lOdSazAJW+TahYLuaW1DGcrXIjM/oEpjW6fR2A6hZOb76Ialdlq6BlUDRIbzk7ICmjsenwxCZb7F+OCo7hufZqw/4ldu1lAVTnwKAaVTqXnmvvknft9aFrT6t2LgcFZxuuPQiVG4Rqd2QAxX4Rn1/a3wSCGAefD1VnNCyOOoWz0bDpXYqjY99hPOgc9ZfV9uC4UjwBl06luCx4DmOY5uSkWiyjSx/cDU62IIBhUEHbynrYoGBVNOM4k8/nyptSGB2GhyEKbBiigv76n2AYQi/LM0GozEVofSWVbWMqqKDJbt1HgyH9KmDjRuRWu+HbsmHs8+RYSqOsZvebRQk1nazuyDN1bBg6CN0APg9IUKD5jRCodpdZYLFHdjYEvBTjphqzLTtkFzKMLelZGekRuSJr8pSNOBvh6QGOgDKo9mE4Flqh6vSi9HDYmM1mjcOH0s1UPs1JDVMSqALQwb/RfcYYixljciXRyyWpXQWVFSz8Ynq4WNXnGhWLef1u8ZDSjg+3SBFUtpwif1nvp5Bf7GRQ3Wgyax1QHkLVA+j4C0ww/CaQd7M+40qOnDRH3cIJ6EimdIrFYzug1quMWu/LcwFdFaLWm7ZmnMkznZHRPlIkoGc9MAdEel1kaVbcTWt+9xA+q0tKCKqTsBFLzxaPZCuljjoAqqE8VysLl6LJqGDrRsiIepzMMJJ6FiDd2hgko1YDQ47rOK6dNWqG7nOX1Y20UhgbnGIobvXwoOrbx4VWq9Bxj6vlUfUYXEajKoSqf9RxClW3c7R02gVwGbjtqnvsQTV0RoUztz9snVQ74OKMwKXoQdUEacrlStPuH5VblSK4G43gqj0A1cBpFp0BuBSL7knhxC0O7UFSqGT+Kh8qqEQN3XaWj7lMPn99fZ3P5zPjgQMej+6htWIi0XSSoAaiVaFwelAdnx+DGUjhrNapug6YiHSGaCICoRroheHl4KhltKvng6NRrT287PhQaU7hpNZv2uXqWa0/1FrggqG6JGtBXY1ZNgugGmnFIqjxJAsuo8KoVhyC+dJxMgGUeEEJVEa2tT++3rvd4+j2erzvwHghsFHNxZSyDP1PasrJzDAfqksAlUugMliotMKwNjgqZ9vVSw+qmggVYC6jP7QBVAYLlWSFsYGCZUUdQKUzUHFcxe61UYWWwyEwK9Hrt4Y7yFzvyek694RWg2jWKoppAneCffq6UEFddSKBqp1UAFUxYoPV+jgMJ48yS7TKKPncJ7jJNgjVMAVUNoaquk2uiiQYB7RvJVjFEDS8zG7AwGX+0S1Rgi+PpH91rtoMqkN/HUxKpPbK2QBTCWsSgvTDodpIAPk1C8mReoSR1VX4kMF6zGQwbQ+qpAKIuMpOyVV8q+/NoGK/jUMqA4OFsqVYXBxQFECh+rchgISrqO4Qj3PAqgTObbz1VcmRunag+IlOmqBbL3xig+eAb8xYCCHc8Ds4ZR6nQWpvAKOqgfAXtqmIWpfhyH71+gK4kVqHa0FN3sGeDCmJ+DECl4Q2MhZSQ7UBV9HHDFcYG85tUqSuIVKSOGEMLtxFDlUarrK3JYARIyBrr3ufYYgZ2KG3CZEaIaT4rRPcbCCNF/R1ddVmxgKkBpyk+FjFKaqMg5CKW1UkdYgKdtcbGwEFlhc+o/vprIfO00TLHGOQut7XEFJf1GBZeNsRH4ZUmKH3J1fr09kE+TkNNx6p6xxiKdO8D2Oa6JUwP9xa3wSqm0XPQixllK9jkRo/ob1iphm18kPOQOKXcs/CDxkBk/ir1ItG3fSBcnIxeuo6s+8YnpeqHrVfQuboCU2LXXudgm0Xzi4BVK7g2jMKw/PBkVNrV/99clS+bDfPz3yoDADV5bHn2jseZlvVwWXfh+q8c2TbleZ/jo/sbKV/7m/zhlw1MorFGsKoWCsXRpfF4fmIcJXKqxDazJvZao5wAkDZj7eRg991br9se75PS0PuPLLZXeQZxoMQi5gP1bA/LBSLhWZ/WC0Wq0N0KXhQFYaVdrNQqTYrlWbhqNCEdx5U1T5I4yWFGfvFKrh4ULWb7UoVZmxXhn7+qg9VsQ/KRxm9SxUWEyGA05vS7A7A5EVisjV3XzAT8sg/fI18xJnc48DRvF2aEKg7UmY0z/C/XtzIqFSHUFWlVLS1bF++YxtC1ZTnglDJMyEBlGcC5Wm9Q7Fth43F/areMzFOuqE74z3B9My7MOjQarUcx3VtA8MEdNT8rhQGEBtfCKZZyXdtwxa4LSnBbdlOWUoOYG95ppatabY8UwtU5YRUpXtRO44s2kSEk+HsZ4LTmceaJH4N8tYXKZbG8HDVw8PIOoyp67ofWadXLSzajsLtaAO3d5fN0rxITOTkV+Vv/mau2ZjIcxbwijvIMP4EqplaQl4IsVZf3Ex5EHg1xR/KJf7eW3+D+w8jiKRRq2nO6ZhfqUCRysF0dI2INZ98WRzG8JO/zM1X9IGIjWrjykOXbLwtgkF713XKy3F+T3SmM8MdXIptLhb3gBazw9LNdCrziwtYqJFcNYVhocGYUO7NUyaTv5YEHHik8pqumV0Z47D+SwlYEX68C+QRI1XI2/BzEGtD7RtrbBthj6NUglM+L9j4T4CKszbB0BmyzzQGLPGWYTO4isvI/AOg4gzzcTbJ1kleGalkBFTIcYsceof/EKj4OUzLW62HnQQYFDYAQ4+YZP0sUSNgAy7tzP/0UPFIwU2mNBIjXcUo5zIGquARqgJUktUkPwGJvoQRZKr0p51gqPCRswKo/wSoRKRy8PCAVRj/RKzrVvExTCDJbIpng74S+ydAFfBPtaClUCJQCeLXwOMaGd+IrsJnCkOsZl1xAH0ZqK73U2cZy5a9JqEAUrmohQjqIuGG5sUvXbwKXKVQ6WFQravkb53afsq8j4YrW02doK49YQnV9RPUVCFLpqZ3NEojmOaqQrUU+Nc1rTlvwwrGAgdVzlmv9XnH0GrlNAx6u1/TDXsdvgJzmNZ+YPiTzWkgleoW2s8cwnEqUetKaQ5Dz3fsBBuZoDkZVHtLzXAz4Y0Mbfy+DR+rFztJRnkUQtH1pWxHQ3Rle5mWkX1invU1sqlKmFMUJkI1XYDea1bDZykmicLceMaXt8XBmi+oxoIbNLN0DkgMq+t9uE5S12SrwaPoet81fE+JsUzGlHsD7KE0tGW6ZwN4CFZnZJcZrLKQoS7TR9PZBOrliBAQnQNO65bXItMyV3jfxJSfLntQwUiZ568HYjFOLEm3+Uecz+u5Uc7Fqazb/NIwNCaLu59PXOH12PGry0JXKFRaeeQ4vVHoSO91s3SvWb5nzux5oyMJgvLWOvh7OGGceKZVv29cwK9hoP+Rgeo2tz+y8WNGYLnL2A4Dyo+XZZ3J5/ecdeZK+vpYzhp8FugAXj7m42u8zQwcrp12azC+Rnu7+SVT6vRwUTctpvPzGTPDEb0y04euybs7oYt6spo14DGwgzxc+J4bj/dHDnhAgp8WAGCXH3MhDxuMQJnxoGzrhoiT/7izrswLt7uXzw3cALYYLVDjcpyTZPPqvM49Lu2sIfiEoe8ZfjVv3NxMAV3AkMXsbqKZltj3ekPudlBvZnVT5heGu3LgFb0O0tayNUOsnfbYsN3ycrn/mMvlPcrlxvuDZRnuxKiJ6Ao9r+musxw8jnN+xsfTZdnVQivza6wZGvR2DmCdGb5Om+z9kNN8PgHUm8PtWvKeW/XFjajQpqVZXUQ12Bs9ZlceSgSemmEYNUwwYIR3+iXIa5C8KGOybJI6k+Q1uaCOPAkwG6i3XZ2WFt2eCfeLgh+8/wMhIhOjgAm0xUD9ov+hq9do9A37C01A/6H+sOfJ0mRswbi8rH+XJR/8uyypM5v1v8B3YaGfYCwsjLzoRPf+AXrdbxqzWcyboRsNuDRX/3pKaf/t02kIOWjBfmyXOQIQhUZQBSqBB2Fc7VDKv3XKPO/I6QryVHCrcwpiZtISkx5tO/zKVPicedsUBtTODlpbPSMuJ+oAVrH/iQSusBdBIW8UUjA6wrt58D/4Td3UdOfngSocqa/QTVWXeDyjVijIHaQBv7pH8ERNm63yR4MRReFA7Vyh9Q2loINYBCJCM9GDWqWJZ3AMZJXVj4YjgiKQ2kE6fSFlEiliMo5TmcAE7y1FdzdwCDz9KSQwAqidJyR+U6xvsKIhuglHbMhGW7wylj2glwa3pI5leE65/vQTSGAUS+2cokOeNz1oXeqZYX7+YgnK6m2yVSRSV+gs3hnbS3Y2HHBKSQFScHAr9Lg95AhlldVbZKtIoHw7YcVhw2AW6HXgbKxQJiMaHv13A7cdvnEJjEHqq8EdHsN0kSgmCgnjW+c1ErG2iNEVgAw6R12u6h+NjEAxQO2cptysnZyoheqNAuiUglO27nW11ctouRigfEW1UOioR8Y3MgIqCjllgoyEZLyjuLAmPMOEhPWQ05iTwDXY6jn/7ddfvw23D1YcS+1coTN4V8RKwPMRIo3EL+xjSDe5Y8ahLBSxZgER3KHJWaFrsNWvH78fHBx8/HXbSMUB5al0k3l5TZyfIFyLq4xdJVk2C2/gmXDclDk9W/36/eDzqvvp4PtvWwUqlqV82zPNu7aiJjbhngX/Fu461HnFng6r52/f388ta/7u4OD7r9uTwQRA7TwZaVS6dFIjWuvYDREAFd4vAoo9pQh+PAAWh1k/gDI4fEWgkDtBYzZhxUhfgF2EiR5d3iFZjI3+TqHT2OEbkaZXfxx8gurO/Pzu988H314RqVP0brNFSNdTE3FlMcY6NyiAD/cwyMyzVQqsnr8d/I189GbP/HCwFc2eCKidU1gpfLcIXhns62Y6QSZjHl1apnJWAW8sBNR6kODZ0iJbpRBBDBVo94fvW4AqGVA7pwZBip2pMGYD8TBQoBhzgjXtFUZXKVgQpZx6J2Gr5FgND373o7fWp4M/XgmonVN0oGidC37KJrkBKQv9gZqmPnfKEsODQnRNaEtirJ7//N5FWFn1g4+vBBSYzujC2wBFOOSgqNKPCm+CUtOeSeZf74O2VQqs/jh4t4IRuO677982MhYSAwX0FDTS6xcKEzUI6CUF6yqslhmPnkJmQSx0oe5mShfwnY32ldCexN3+dvD9/efP7w++bzT+JQcKjH16yAKg1IMgAxUeHgh7UX3HgAonzdmW2KIYrPKZzHiMOvnHnx+BTfXnJooqBVC+PTWJdnvKDe7IDOwyRyEPtUnh4ZqiHRqNVT6feVw6WWPpdXT4xx+bzJbTAOXZ6HgXDatKSPiP/hChxoV7Gh+MGgEVL86sB0RQilUecdOgZWtADHR7fXzWAwrN+zSrKw8kSyZwiZAiBmi0XYXIO6sn2DAGIS8SPt5fPjk2XvRjOBsDlQonz5cAkEq/MysOu6CxEEJIBLNPcK3HFUf+tsrH/cFyBM9prZGFO6aZdUe5zXBKx1DQk4eQumflju9x8BN7E+1ZYAzS8CTwFTUmWmeH1t+wB1S7tg3X0qEVO3hxE1pw1Pvv43gznNICBQxPFEZe0DUJhBeYOQvWytg8YMwCalaIzMMPfOKgwBuks2R7vtEZ3PPuh0/vDjayzdPjBNSUd54A8SUIvCUMW0HWEMc1GcvQaRLFjrPA4PWLxa/m0uAf8oW/fG3e6/796T30TYG//7c+UOlx2rnyDgli9ilwUAkjvMr1nSRhTFbBdqfWOjNZ5OEjNIXHLpiTbr1en/R6c0y93qRe764+/P35M8aIUPPVGAoL38u9rpsL28dNKGFQUJt/evfu3XuBwFcHPEgereEhXgumHSh8CKkVO/Qlss3DNb8EKJarIqkEpc6EWMkoANRBam21Lk7PV67Bq6ltEzFB4+0qjw7hCxm0zyFYvfsYgOrPFDCtixOgrx5LTWIDDpwJmm5uw+inaJPBp9kv8NmFYhVEK9kMeROYiD7nhC+hWS6VvjARJMYCHRuwCSHTXDPkJ/8QjpUgiR9jNftmMAGgnpA5Z84bYf0Pfp/awRBEkfXJ0JklR3CGo1nRWDHc9f238Fny86YoQTpF9rlpdSUj3zqISIHxOIkLxDOjICeVTD7Vw6r+Pg4sBBhALOjOe94KRoiuHMRSlreJKAaqDZDDdpYggEKaAFoLuNXEmvyeBCtIOdCl5+ct4kOBetIYllLxrEQRJigKsYfIzITYlNRSUnERTMyGs1hpHFA6Akrha0ArPVK5c/R+6xBhoLxDwqzJK7zFPOBZSEiHczNeuVP634sg9RUpKfDU7tdyuKSURur/pNNlcd4jpRu0f9XqhVmjL47V1VfvaEpgIXi7RjkPpyLTKORH3gsqJiJXNVgGjdgQMQ5Ol0WarpDRoCVkrL+2DNST7RkIZv2BxSaepKl4bcyjJxgYkWo9rM4F2gJn1ZMx1jaxgkB5u/YmjU0GtZTEzZXT1fvQ8xkrkdnw17+2BNSp47010LR6M+HExfVBiP+WcRLyIdOYrN7H6R3aoGrNEw2FW+Grq6/+NncfKDLAK7xZwCgi4qYi6oQVIhoyZbycJCLDeEHZEVBNMQLi7A2k3U0zkXrfWLdfnfoqCuqo2bbjDHF9XdNYIDS9/wWZDUBlfYzF6rfnTYTw6sn1dtWa5i/1w6Dm3UCtS35XxWJppIbjKlWhTKxIr2SaqJS6lgdW73O8zmqui9XVV83Qfcmb35XEpmNbWmG7woQ3GZsI+zLZWAP7keRnknp9VWnfVRYGdmSMpimQQg+sSbyCX0thnT45/tkUJpD12boO4URsF56I0+SBOGAiqODJMz5Yptb9FIPWb7l0jAX1Ez6uGHDul8N4qybMhk6cS2p7MwzHzwxTlj+d+WfAg6e+ilHxf/0rKVgAJsfGoUV4bnXjIlh1WG+TIJI8MTbIiSdvA/tk2qj7B+YDZfIhUm39lkBjXUFuMgyd4KStZsl2s7+UTcpylRrm9wx8JfAqtrIeuvi8Hsuc1z9EiOL/IqUQMZNGDnUxYQB2dkE0hdhEVntwoqEEBEk6X8MmFDteUbZRaV7i0eHj0evRxaxu+WjBEHNv9fen39+9k1kRfwl2w7PHSV+fWm6Wi+db1uT+MLigM+p5RnYgTtWFegiYCbkamNjwtnuUhmRkunQ/oWdBwVnifNL98PnT7+9FHvsLO7GuPIgc+HpuPcseqm/NJ0DsvFdaBEd+YiHQ0Z4zFlThRz4TVyRblsKqb04rCUaTwJsSWCTfCAg/wAOh6Ok06IAVU5v3JjAETejuv09P8J3QUNQgH7Fv0vZePf6lUZJZ5KJkRD0+maTKc8f+QCc8xEDjLSqVCrFgeWEupJYYY49dNO4mc+HII/GEGu99CZK1IVpvslo8TIOOanm/6IQvVI8xH/lBLQIjUVIDnIohoX8U6mLG7KjyxagCgv63N4eL7txEL6uPXUKDT/fRAEiNh4swxpF1bOsWQlgZAm2hSL54gNeXbr0HFY8leXsJejcDEE4gm3f3s8ObabImrNvOTfrH2lUBtb4hUf6aXsDXy8zu71ZwEY1P3e5qdb+YNRoPpRv8cobQUqhrhbSXaAU/FeZtrEdwfuKDYRziKp+arUIRS1SV/wfeGFdKKts6UAAAAABJRU5ErkJggg==;" vertex="1" parent="1">
          <mxGeometry x="571.23" y="570" width="51.14" height="29" as="geometry" />
        </mxCell>
        <mxCell id="5ypcM1BZYjg6Bkp_wZxM-14" value="" style="shape=image;verticalLabelPosition=bottom;labelBackgroundColor=default;verticalAlign=top;aspect=fixed;imageAspect=0;image=data:image/png,iVBORw0KGgoAAAANSUhEUgAAASoAAACpCAMAAACrt4DfAAABC1BMVEX///8Dm8b+/v4Ai7gkuOs5TVQAqtq/2+A5SlArl7wef50Anso5S1E6SU80SVDU7fEsQ0s2T1cArtYOnL3R1dfBx8ozaHgeyfgfwe4Aq9I6QkVhb3S3vb81XWknosUrj6srY3EhueMhd4wddJMtiKE2WGFwfoIhf5dOYGY+PT7k5ucql7YieZA9P0EApswra30LgqqzzdMXjbAAqNdWZmx6kZfe4uPt7/Crs7YktOWAjJBDV14Ah7aOmJzKz9EjPUaao6YycIfF5+6hu8GOp6w8My+Fj5I9Lysuh6chbot1goYjZXthudWBxtwBkr/f9PaX0+OqwcZDsNBoipWQ0OGu3ulxuM6Fv9GIn6W4n7xnAAAdTUlEQVR4nN1di0PayNYP0ViQJCaAyCsIShAFwSIVlKsLbW+vxa7d3fvt3v3//5JvZpJ5ZvICtHZPHyEwz1/OOXPmnJmJoqjgDyD/EkNq4rt16KERTRfSulTJd5KGpe2eGvhB9a5qqo7GJFZVlaTBn1R6rzC/kAcFqf6LFUW/HOJSVJSRNF0lFap+RSiBV7iqqgr3jUpZw//FL8BLSxuqMm30/zC/J0ZDkiYZ2FGpuqYWRdZholJSPPTYpMEEm8vO5qWoPlS6nFio6ANXKCOxUsIxlUI/Cw1V+e+4ZD7/qCop0+cqVgw2p3XLgVDZrpx4rtp6oxIJEZLTZEp9q8Q/YvQ/gCpbrrRlNLQ3hWq7tD2u4pQ3LZnV5OLj8QTQKB9V2hVEbe+fd1fgoIprqCpJkpKrJHrYV+qcfG9KZKBQ8QCnUv3C18fpHA+qpnF85DiVZg1c3Erf6ByVHQyVl80f8YhA4DGM+Uuv5FZRmPREnEjHcRNxu5kCJGIXa6EkhYpeAx95DcxXhgTwqHnZOXLdSvPfx0euXenXOhC4gq2/qAAmH/BVbJVsQwqZp02fjz/c4GeqqCxX+ZXzUJ3zUPlcpTDPnIxY/shEWIT2DPMTsa+IncWNeSq94HJVWixNuHVa1+qJhOpluSoFbRUxVrSDah0zEqmS2L/xXCVtbXLbd+1eqiGfE+WM4RzK5PgDkRGajDUFYwUQcxUzDKh8S7CBSJ9S1EioBgCg+idQh6yArRCHh1C8qnI/0I90BIznKll1CToUMtGVquiw4siYyAvPmsSWg0WOqFZVYXSyUNNWdNWWlW9ccYFHTwYY7l6h3WWHk1hdFdaMxLpqXdoGjJijtkIqGbt5q5ByLzESVQ7seK7CrWQEmmFXv3b6i6hxVPZ7+vhIJu45Ek5gG7llnpVwjoyrpNZ6MgFM0OBN+yTJ74PFPGh1Y+go57DTB6Z8jrlUYo6m0VX4EbD8K3YQcxzJQDmDsbnJd4xXjytE1DZb5CwGIGbKRtWZJzDURCZqMImuUmnncUcEKGifuDtRdmkhnM4Ninhw+EmEgXgbFHHhlswm+I4EOwMpuQlKiwt0wpdmNdjhqP4SLZYksSyvcCd+p8pA2YA/X3wEfDHiJJcHix0ZBMleB6q0XBVdzGtTZLUy9ReaQyYi8pHj5+Uqjl7jib08VFvtBR4rGANRpeMHy05MSnrZiHyozjsQI+jas7VKHwDnuPwISNsQaDv3AV+kQsDkCilSLC6E1Pgk0fnXIQ+qSrsN//KXn0kA09G0vg7NNRixkVI1DqrQxxpUldOIJMmLSUfhav3CMtcgGEK2HTltHAcktJiXtlIOJjVEzhOCO40OqUcRH1TOyqLLG9EMPJLZ9tQ7jj9RA4q1faX6nEYV4AVBlTWkBHst/yXip2wSqKLMFfzbA2iZad1Lk64JoJhNpucDAkjahKAanUipBQAZnEnJ1TV3IM00IiNgWFtDjF9BHEpzxO9WnVFYop+RKy569NwCXYAG6ccFGbXPDM1uH0mpbGRbbWmu5pbsqglsGMLqZgvdTF4vd+Fo6kHV7wyHnX7huFOFF3RXLCCoKv3i0bDfbveblWof3HmXsqG3Ck2Q5vi46l+K/mU7E5uFBdplGwArs5ccq2C54mQuIgFvigY51YdqZBT756OCUxsWz0ft1uWwf37iQdU2nKPBebOtjSodcDHK4DI8QlAdn5+1bbt6/O+zgq1XO+eDgusOE0EVSzdziFTmsaanwirWBI0yMYIMxdu8PlQndrFfOym0ssPi5Ul7ZAz7tYEPle0cndWabXdUOQYXDUBV86Hq187arlvtn58VXLvaqZ0VHCcZV8XSCjBVbby7m9PAMGFq2zEaZHNc7pMaMuX16OWgIuOt95F5ZkzIyZ+R+9/i9iolE9q4t7sAK5vlK+JLVWjheIxKYCWlVfn8FHBtqLIvyVVfIFS5XUj5LOSrScBw97qSoLf0GjA9fc8Ja1754IvRDnj/ggLI1KZSHmJbpJDf2A6BYbkH5pjOrkcZyFfWShXTq/x9lB2yHfKhWmpSqPQfo6sOoabK+VDt5uAMwFpso7fcsJYWVAzVm1LrK1PT3VsM1e4Y2gzaq3oriEQweGIBlHPVVqCSSIUq+cx8B9pkLHcp7deAuppL1ZW8zOjaE1Ew0ytAlZpKQP6MHAPV7hLwlXW3rhpiZ5YbUFCt107a5XCo7JeDivRmBi31PRaqPReaDOuUikc+vBoqfOoi1WPsYHIhGwEjoEo9AvIjldAGYWGV/+mLBVTVLkc5w7MY2Gglzs/1NsobHiOL/MRGaLoSwlVbF8AoXRWgKVy9teSh8kRwFtdhyRyQsZ2Skc+H4brq5UfAxI2dTgBUjwJUe8C6Mnsxmj2s4wrDMniGEAofl5qlFxPAZE9SluRiLmp1PAp6bBWXP3FFGBXmwoPEf/kGp8s3cADMi1DdAs1uzlMP/Vsa/SC9QaigrWAHoNp9NNIVzI8WIVzFLp9G/4lOdSazAJW+TahYLuaW1DGcrXIjM/oEpjW6fR2A6hZOb76Ialdlq6BlUDRIbzk7ICmjsenwxCZb7F+OCo7hufZqw/4ldu1lAVTnwKAaVTqXnmvvknft9aFrT6t2LgcFZxuuPQiVG4Rqd2QAxX4Rn1/a3wSCGAefD1VnNCyOOoWz0bDpXYqjY99hPOgc9ZfV9uC4UjwBl06luCx4DmOY5uSkWiyjSx/cDU62IIBhUEHbynrYoGBVNOM4k8/nyptSGB2GhyEKbBiigv76n2AYQi/LM0GozEVofSWVbWMqqKDJbt1HgyH9KmDjRuRWu+HbsmHs8+RYSqOsZvebRQk1nazuyDN1bBg6CN0APg9IUKD5jRCodpdZYLFHdjYEvBTjphqzLTtkFzKMLelZGekRuSJr8pSNOBvh6QGOgDKo9mE4Flqh6vSi9HDYmM1mjcOH0s1UPs1JDVMSqALQwb/RfcYYixljciXRyyWpXQWVFSz8Ynq4WNXnGhWLef1u8ZDSjg+3SBFUtpwif1nvp5Bf7GRQ3Wgyax1QHkLVA+j4C0ww/CaQd7M+40qOnDRH3cIJ6EimdIrFYzug1quMWu/LcwFdFaLWm7ZmnMkznZHRPlIkoGc9MAdEel1kaVbcTWt+9xA+q0tKCKqTsBFLzxaPZCuljjoAqqE8VysLl6LJqGDrRsiIepzMMJJ6FiDd2hgko1YDQ47rOK6dNWqG7nOX1Y20UhgbnGIobvXwoOrbx4VWq9Bxj6vlUfUYXEajKoSqf9RxClW3c7R02gVwGbjtqnvsQTV0RoUztz9snVQ74OKMwKXoQdUEacrlStPuH5VblSK4G43gqj0A1cBpFp0BuBSL7knhxC0O7UFSqGT+Kh8qqEQN3XaWj7lMPn99fZ3P5zPjgQMej+6htWIi0XSSoAaiVaFwelAdnx+DGUjhrNapug6YiHSGaCICoRroheHl4KhltKvng6NRrT287PhQaU7hpNZv2uXqWa0/1FrggqG6JGtBXY1ZNgugGmnFIqjxJAsuo8KoVhyC+dJxMgGUeEEJVEa2tT++3rvd4+j2erzvwHghsFHNxZSyDP1PasrJzDAfqksAlUugMliotMKwNjgqZ9vVSw+qmggVYC6jP7QBVAYLlWSFsYGCZUUdQKUzUHFcxe61UYWWwyEwK9Hrt4Y7yFzvyek694RWg2jWKoppAneCffq6UEFddSKBqp1UAFUxYoPV+jgMJ48yS7TKKPncJ7jJNgjVMAVUNoaquk2uiiQYB7RvJVjFEDS8zG7AwGX+0S1Rgi+PpH91rtoMqkN/HUxKpPbK2QBTCWsSgvTDodpIAPk1C8mReoSR1VX4kMF6zGQwbQ+qpAKIuMpOyVV8q+/NoGK/jUMqA4OFsqVYXBxQFECh+rchgISrqO4Qj3PAqgTObbz1VcmRunag+IlOmqBbL3xig+eAb8xYCCHc8Ds4ZR6nQWpvAKOqgfAXtqmIWpfhyH71+gK4kVqHa0FN3sGeDCmJ+DECl4Q2MhZSQ7UBV9HHDFcYG85tUqSuIVKSOGEMLtxFDlUarrK3JYARIyBrr3ufYYgZ2KG3CZEaIaT4rRPcbCCNF/R1ddVmxgKkBpyk+FjFKaqMg5CKW1UkdYgKdtcbGwEFlhc+o/vprIfO00TLHGOQut7XEFJf1GBZeNsRH4ZUmKH3J1fr09kE+TkNNx6p6xxiKdO8D2Oa6JUwP9xa3wSqm0XPQixllK9jkRo/ob1iphm18kPOQOKXcs/CDxkBk/ir1ItG3fSBcnIxeuo6s+8YnpeqHrVfQuboCU2LXXudgm0Xzi4BVK7g2jMKw/PBkVNrV/99clS+bDfPz3yoDADV5bHn2jseZlvVwWXfh+q8c2TbleZ/jo/sbKV/7m/zhlw1MorFGsKoWCsXRpfF4fmIcJXKqxDazJvZao5wAkDZj7eRg991br9se75PS0PuPLLZXeQZxoMQi5gP1bA/LBSLhWZ/WC0Wq0N0KXhQFYaVdrNQqTYrlWbhqNCEdx5U1T5I4yWFGfvFKrh4ULWb7UoVZmxXhn7+qg9VsQ/KRxm9SxUWEyGA05vS7A7A5EVisjV3XzAT8sg/fI18xJnc48DRvF2aEKg7UmY0z/C/XtzIqFSHUFWlVLS1bF++YxtC1ZTnglDJMyEBlGcC5Wm9Q7Fth43F/areMzFOuqE74z3B9My7MOjQarUcx3VtA8MEdNT8rhQGEBtfCKZZyXdtwxa4LSnBbdlOWUoOYG95ppatabY8UwtU5YRUpXtRO44s2kSEk+HsZ4LTmceaJH4N8tYXKZbG8HDVw8PIOoyp67ofWadXLSzajsLtaAO3d5fN0rxITOTkV+Vv/mau2ZjIcxbwijvIMP4EqplaQl4IsVZf3Ex5EHg1xR/KJf7eW3+D+w8jiKRRq2nO6ZhfqUCRysF0dI2INZ98WRzG8JO/zM1X9IGIjWrjykOXbLwtgkF713XKy3F+T3SmM8MdXIptLhb3gBazw9LNdCrziwtYqJFcNYVhocGYUO7NUyaTv5YEHHik8pqumV0Z47D+SwlYEX68C+QRI1XI2/BzEGtD7RtrbBthj6NUglM+L9j4T4CKszbB0BmyzzQGLPGWYTO4isvI/AOg4gzzcTbJ1kleGalkBFTIcYsceof/EKj4OUzLW62HnQQYFDYAQ4+YZP0sUSNgAy7tzP/0UPFIwU2mNBIjXcUo5zIGquARqgJUktUkPwGJvoQRZKr0p51gqPCRswKo/wSoRKRy8PCAVRj/RKzrVvExTCDJbIpng74S+ydAFfBPtaClUCJQCeLXwOMaGd+IrsJnCkOsZl1xAH0ZqK73U2cZy5a9JqEAUrmohQjqIuGG5sUvXbwKXKVQ6WFQravkb53afsq8j4YrW02doK49YQnV9RPUVCFLpqZ3NEojmOaqQrUU+Nc1rTlvwwrGAgdVzlmv9XnH0GrlNAx6u1/TDXsdvgJzmNZ+YPiTzWkgleoW2s8cwnEqUetKaQ5Dz3fsBBuZoDkZVHtLzXAz4Y0Mbfy+DR+rFztJRnkUQtH1pWxHQ3Rle5mWkX1invU1sqlKmFMUJkI1XYDea1bDZykmicLceMaXt8XBmi+oxoIbNLN0DkgMq+t9uE5S12SrwaPoet81fE+JsUzGlHsD7KE0tGW6ZwN4CFZnZJcZrLKQoS7TR9PZBOrliBAQnQNO65bXItMyV3jfxJSfLntQwUiZ568HYjFOLEm3+Uecz+u5Uc7Fqazb/NIwNCaLu59PXOH12PGry0JXKFRaeeQ4vVHoSO91s3SvWb5nzux5oyMJgvLWOvh7OGGceKZVv29cwK9hoP+Rgeo2tz+y8WNGYLnL2A4Dyo+XZZ3J5/ecdeZK+vpYzhp8FugAXj7m42u8zQwcrp12azC+Rnu7+SVT6vRwUTctpvPzGTPDEb0y04euybs7oYt6spo14DGwgzxc+J4bj/dHDnhAgp8WAGCXH3MhDxuMQJnxoGzrhoiT/7izrswLt7uXzw3cALYYLVDjcpyTZPPqvM49Lu2sIfiEoe8ZfjVv3NxMAV3AkMXsbqKZltj3ekPudlBvZnVT5heGu3LgFb0O0tayNUOsnfbYsN3ycrn/mMvlPcrlxvuDZRnuxKiJ6Ao9r+musxw8jnN+xsfTZdnVQivza6wZGvR2DmCdGb5Om+z9kNN8PgHUm8PtWvKeW/XFjajQpqVZXUQ12Bs9ZlceSgSemmEYNUwwYIR3+iXIa5C8KGOybJI6k+Q1uaCOPAkwG6i3XZ2WFt2eCfeLgh+8/wMhIhOjgAm0xUD9ov+hq9do9A37C01A/6H+sOfJ0mRswbi8rH+XJR/8uyypM5v1v8B3YaGfYCwsjLzoRPf+AXrdbxqzWcyboRsNuDRX/3pKaf/t02kIOWjBfmyXOQIQhUZQBSqBB2Fc7VDKv3XKPO/I6QryVHCrcwpiZtISkx5tO/zKVPicedsUBtTODlpbPSMuJ+oAVrH/iQSusBdBIW8UUjA6wrt58D/4Td3UdOfngSocqa/QTVWXeDyjVijIHaQBv7pH8ERNm63yR4MRReFA7Vyh9Q2loINYBCJCM9GDWqWJZ3AMZJXVj4YjgiKQ2kE6fSFlEiliMo5TmcAE7y1FdzdwCDz9KSQwAqidJyR+U6xvsKIhuglHbMhGW7wylj2glwa3pI5leE65/vQTSGAUS+2cokOeNz1oXeqZYX7+YgnK6m2yVSRSV+gs3hnbS3Y2HHBKSQFScHAr9Lg95AhlldVbZKtIoHw7YcVhw2AW6HXgbKxQJiMaHv13A7cdvnEJjEHqq8EdHsN0kSgmCgnjW+c1ErG2iNEVgAw6R12u6h+NjEAxQO2cptysnZyoheqNAuiUglO27nW11ctouRigfEW1UOioR8Y3MgIqCjllgoyEZLyjuLAmPMOEhPWQ05iTwDXY6jn/7ddfvw23D1YcS+1coTN4V8RKwPMRIo3EL+xjSDe5Y8ahLBSxZgER3KHJWaFrsNWvH78fHBx8/HXbSMUB5al0k3l5TZyfIFyLq4xdJVk2C2/gmXDclDk9W/36/eDzqvvp4PtvWwUqlqV82zPNu7aiJjbhngX/Fu461HnFng6r52/f388ta/7u4OD7r9uTwQRA7TwZaVS6dFIjWuvYDREAFd4vAoo9pQh+PAAWh1k/gDI4fEWgkDtBYzZhxUhfgF2EiR5d3iFZjI3+TqHT2OEbkaZXfxx8gurO/Pzu988H314RqVP0brNFSNdTE3FlMcY6NyiAD/cwyMyzVQqsnr8d/I189GbP/HCwFc2eCKidU1gpfLcIXhns62Y6QSZjHl1apnJWAW8sBNR6kODZ0iJbpRBBDBVo94fvW4AqGVA7pwZBip2pMGYD8TBQoBhzgjXtFUZXKVgQpZx6J2Gr5FgND373o7fWp4M/XgmonVN0oGidC37KJrkBKQv9gZqmPnfKEsODQnRNaEtirJ7//N5FWFn1g4+vBBSYzujC2wBFOOSgqNKPCm+CUtOeSeZf74O2VQqs/jh4t4IRuO677982MhYSAwX0FDTS6xcKEzUI6CUF6yqslhmPnkJmQSx0oe5mShfwnY32ldCexN3+dvD9/efP7w++bzT+JQcKjH16yAKg1IMgAxUeHgh7UX3HgAonzdmW2KIYrPKZzHiMOvnHnx+BTfXnJooqBVC+PTWJdnvKDe7IDOwyRyEPtUnh4ZqiHRqNVT6feVw6WWPpdXT4xx+bzJbTAOXZ6HgXDatKSPiP/hChxoV7Gh+MGgEVL86sB0RQilUecdOgZWtADHR7fXzWAwrN+zSrKw8kSyZwiZAiBmi0XYXIO6sn2DAGIS8SPt5fPjk2XvRjOBsDlQonz5cAkEq/MysOu6CxEEJIBLNPcK3HFUf+tsrH/cFyBM9prZGFO6aZdUe5zXBKx1DQk4eQumflju9x8BN7E+1ZYAzS8CTwFTUmWmeH1t+wB1S7tg3X0qEVO3hxE1pw1Pvv43gznNICBQxPFEZe0DUJhBeYOQvWytg8YMwCalaIzMMPfOKgwBuks2R7vtEZ3PPuh0/vDjayzdPjBNSUd54A8SUIvCUMW0HWEMc1GcvQaRLFjrPA4PWLxa/m0uAf8oW/fG3e6/796T30TYG//7c+UOlx2rnyDgli9ilwUAkjvMr1nSRhTFbBdqfWOjNZ5OEjNIXHLpiTbr1en/R6c0y93qRe764+/P35M8aIUPPVGAoL38u9rpsL28dNKGFQUJt/evfu3XuBwFcHPEgereEhXgumHSh8CKkVO/Qlss3DNb8EKJarIqkEpc6EWMkoANRBam21Lk7PV67Bq6ltEzFB4+0qjw7hCxm0zyFYvfsYgOrPFDCtixOgrx5LTWIDDpwJmm5uw+inaJPBp9kv8NmFYhVEK9kMeROYiD7nhC+hWS6VvjARJMYCHRuwCSHTXDPkJ/8QjpUgiR9jNftmMAGgnpA5Z84bYf0Pfp/awRBEkfXJ0JklR3CGo1nRWDHc9f238Fny86YoQTpF9rlpdSUj3zqISIHxOIkLxDOjICeVTD7Vw6r+Pg4sBBhALOjOe94KRoiuHMRSlreJKAaqDZDDdpYggEKaAFoLuNXEmvyeBCtIOdCl5+ct4kOBetIYllLxrEQRJigKsYfIzITYlNRSUnERTMyGs1hpHFA6Akrha0ArPVK5c/R+6xBhoLxDwqzJK7zFPOBZSEiHczNeuVP634sg9RUpKfDU7tdyuKSURur/pNNlcd4jpRu0f9XqhVmjL47V1VfvaEpgIXi7RjkPpyLTKORH3gsqJiJXNVgGjdgQMQ5Ol0WarpDRoCVkrL+2DNST7RkIZv2BxSaepKl4bcyjJxgYkWo9rM4F2gJn1ZMx1jaxgkB5u/YmjU0GtZTEzZXT1fvQ8xkrkdnw17+2BNSp47010LR6M+HExfVBiP+WcRLyIdOYrN7H6R3aoGrNEw2FW+Grq6/+NncfKDLAK7xZwCgi4qYi6oQVIhoyZbycJCLDeEHZEVBNMQLi7A2k3U0zkXrfWLdfnfoqCuqo2bbjDHF9XdNYIDS9/wWZDUBlfYzF6rfnTYTw6sn1dtWa5i/1w6Dm3UCtS35XxWJppIbjKlWhTKxIr2SaqJS6lgdW73O8zmqui9XVV83Qfcmb35XEpmNbWmG7woQ3GZsI+zLZWAP7keRnknp9VWnfVRYGdmSMpimQQg+sSbyCX0thnT45/tkUJpD12boO4URsF56I0+SBOGAiqODJMz5Yptb9FIPWb7l0jAX1Ez6uGHDul8N4qybMhk6cS2p7MwzHzwxTlj+d+WfAg6e+ilHxf/0rKVgAJsfGoUV4bnXjIlh1WG+TIJI8MTbIiSdvA/tk2qj7B+YDZfIhUm39lkBjXUFuMgyd4KStZsl2s7+UTcpylRrm9wx8JfAqtrIeuvi8Hsuc1z9EiOL/IqUQMZNGDnUxYQB2dkE0hdhEVntwoqEEBEk6X8MmFDteUbZRaV7i0eHj0evRxaxu+WjBEHNv9fen39+9k1kRfwl2w7PHSV+fWm6Wi+db1uT+MLigM+p5RnYgTtWFegiYCbkamNjwtnuUhmRkunQ/oWdBwVnifNL98PnT7+9FHvsLO7GuPIgc+HpuPcseqm/NJ0DsvFdaBEd+YiHQ0Z4zFlThRz4TVyRblsKqb04rCUaTwJsSWCTfCAg/wAOh6Ok06IAVU5v3JjAETejuv09P8J3QUNQgH7Fv0vZePf6lUZJZ5KJkRD0+maTKc8f+QCc8xEDjLSqVCrFgeWEupJYYY49dNO4mc+HII/GEGu99CZK1IVpvslo8TIOOanm/6IQvVI8xH/lBLQIjUVIDnIohoX8U6mLG7KjyxagCgv63N4eL7txEL6uPXUKDT/fRAEiNh4swxpF1bOsWQlgZAm2hSL54gNeXbr0HFY8leXsJejcDEE4gm3f3s8ObabImrNvOTfrH2lUBtb4hUf6aXsDXy8zu71ZwEY1P3e5qdb+YNRoPpRv8cobQUqhrhbSXaAU/FeZtrEdwfuKDYRziKp+arUIRS1SV/wfeGFdKKts6UAAAAABJRU5ErkJggg==;" vertex="1" parent="1">
          <mxGeometry x="571.23" y="360" width="51.14" height="29" as="geometry" />
        </mxCell>
        <mxCell id="5ypcM1BZYjg6Bkp_wZxM-16" value="Google Cloudrun" style="shape=image;verticalLabelPosition=bottom;labelBackgroundColor=default;verticalAlign=top;aspect=fixed;imageAspect=0;image=https://static-00.iconduck.com/assets.00/google-cloud-run-icon-512x460-knkc4eyx.png;" vertex="1" parent="1">
          <mxGeometry x="950" y="272.5" width="161.39" height="145" as="geometry" />
        </mxCell>
        <mxCell id="5ypcM1BZYjg6Bkp_wZxM-20" value="" style="shape=image;verticalLabelPosition=bottom;labelBackgroundColor=default;verticalAlign=top;aspect=fixed;imageAspect=0;image=https://www.freecodecamp.org/news/content/images/2020/10/gcp.png;" vertex="1" parent="1">
          <mxGeometry x="652.22" y="40" width="115.55" height="65" as="geometry" />
        </mxCell>
      </root>
    </mxGraphModel>
  </diagram>
</mxfile>
